<svg version="1.1" id="Layer_1" xmlns="http://www.w3.org/2000/svg" x="0" y="0" viewBox="0 0 256 256" style="enable-background:new 0 0 256 256" xml:space="preserve"><style>.st2{fill:#f9a7a7}.st4{fill:#3762cc}.st5{fill:#e0ebfc}</style><path d="M238.175 193.754H17.825V57.246c0-6.627 5.373-12 12-12h196.349c6.627 0 12 5.373 12 12v136.508z" style="fill:#4671c6"/><path d="M140 57.448h-24a3 3 0 0 1-3-3v-4a3 3 0 0 1 3-3h24a3 3 0 0 1 3 3v4a3 3 0 0 1-3 3z" style="fill:#b9befc"/><path d="M240 210.754H16a8 8 0 0 1-8-8v-7a2 2 0 0 1 2-2h236a2 2 0 0 1 2 2v7a8 8 0 0 1-8 8z" style="fill:#a4c9ff"/><path d="M27.619 179.351v-113.7a6 6 0 0 1 6-6h188.763a6 6 0 0 1 6 6v113.7a6 6 0 0 1-6 6H33.619a6 6 0 0 1-6-6z" style="fill:#6bdddd"/><circle class="st5" cx="128" cy="52.448" r="3.607"/><path class="st4" d="M240 212.754H16c-5.514 0-10-4.486-10-10v-7c0-2.206 1.794-4 4-4h236c2.206 0 4 1.794 4 4v7c0 5.515-4.486 10-10 10zm-230-17v7c0 3.309 2.691 6 6 6h224c3.309 0 6-2.691 6-6v-7H10z"/><path class="st5" d="M112 193.754h32v6.5a2 2 0 0 1-2 2h-28a2 2 0 0 1-2-2v-6.5z"/><path class="st4" d="M238.175 195.754H17.825a2 2 0 0 1-2-2V57.246c0-7.72 6.28-14 14-14h196.35c7.72 0 14 6.28 14 14v136.509a2 2 0 0 1-2 1.999zm-218.35-4h216.35V57.246c0-5.514-4.486-10-10-10H29.825c-5.514 0-10 4.486-10 10v134.508z"/><path class="st4" d="M142 204.254h-28c-2.206 0-4-1.794-4-4v-6.5a2 2 0 0 1 2-2h32a2 2 0 0 1 2 2v6.5c0 2.206-1.794 4-4 4zm-28-8.5v4.5h28v-4.5h-28z"/><path class="st2" d="M61.623 92.203H46.5a3 3 0 0 1-3-3V74.079a3 3 0 0 1 3-3h15.123a3 3 0 0 1 3 3v15.123a3 3 0 0 1-3 3.001z"/><path d="M61.623 124.203H46.5a3 3 0 0 1-3-3V106.08a3 3 0 0 1 3-3h15.123a3 3 0 0 1 3 3v15.123a3 3 0 0 1-3 3z" style="fill:#f9cfcf"/><path class="st2" d="M61.623 158.203H46.5a3 3 0 0 1-3-3V140.08a3 3 0 0 1 3-3h15.123a3 3 0 0 1 3 3v15.123a3 3 0 0 1-3 3z"/><path class="st5" d="M228.381 179.351v-7.105H27.619v7.105a6 6 0 0 0 6 6h188.763a6 6 0 0 0 5.999-6z"/><path class="st4" d="M222.381 187.351H33.619c-4.411 0-8-3.589-8-8v-113.7c0-4.411 3.589-8 8-8h188.763c4.411 0 8 3.589 8 8v113.7c-.001 4.411-3.59 8-8.001 8zM33.619 61.651c-2.206 0-4 1.794-4 4v113.7c0 2.206 1.794 4 4 4h188.763c2.206 0 4-1.794 4-4v-113.7c0-2.206-1.794-4-4-4H33.619z"/></svg>